<?xml version="1.0" encoding="UTF-8" standalone="no"?><!DOCTYPE svg PUBLIC "-//W3C//DTD SVG 1.1//EN" "http://www.w3.org/Graphics/SVG/1.1/DTD/svg11.dtd"><svg width="100%" height="100%" viewBox="0 0 2138 857" version="1.1" xmlns="http://www.w3.org/2000/svg" xmlns:xlink="http://www.w3.org/1999/xlink" xml:space="preserve" xmlns:serif="http://www.serif.com/" style="fill-rule:evenodd;clip-rule:evenodd;stroke-linejoin:round;stroke-miterlimit:2;"><g><path d="M428.073,606.25c-107.5,0 -194.167,-86.667 -194.167,-194.167c0,-107.5 86.667,-194.166 194.167,-194.166c53.333,-0 102.5,21.666 137.5,56.666l68.333,-68.333c-52.5,-53.333 -125,-85.833 -205.833,-85.833c-160.833,-0 -291.667,130.833 -291.667,291.666c0,160.834 130.834,291.667 291.667,291.667c80.833,0 153.333,-32.5 205.833,-85l-68.333,-69.167c-35,35 -84.167,56.667 -137.5,56.667Zm89.167,-194.167c-0,49.167 -40,90 -90,90c-49.167,0 -90,-40.833 -90,-90c-0,-50 40.833,-90 90,-90c50,0 90,40 90,90Z" style="fill:#639;fill-rule:nonzero;"/><path d="M824.848,120.833l-97.5,0l0,583.334l97.5,-0c145,-0 340.834,-42.5 340.834,-291.667c-0,-259.167 -199.167,-291.667 -340.834,-291.667Zm242.5,291.667c0,40.833 -7.5,73.333 -20,99.167l-188.333,-297.5c66.667,-0.834 208.333,20 208.333,198.333Zm-242.5,196.667l0,-280.834l158.334,252.5c-70,40.834 -158.334,28.334 -158.334,28.334Z" style="fill:#f5bb08;fill-rule:nonzero;"/><path d="M1774.85,120l-105.833,0l-77.5,186.667l-77.5,-186.667l-105,0l-243.333,584.167l105,-0l190.833,-457.5l77.5,185.833l-113.333,271.667l105.833,-0l60,-145l60.833,145l105,-0l-112.5,-271.667l77.5,-185.833l190.834,457.5l105,-0l-243.334,-584.167Z" style="fill:#639;fill-rule:nonzero;"/></g></svg>