<?xml version="1.0" encoding="UTF-8" standalone="no"?><!DOCTYPE svg PUBLIC "-//W3C//DTD SVG 1.1//EN" "http://www.w3.org/Graphics/SVG/1.1/DTD/svg11.dtd"><svg width="100%" height="100%" viewBox="0 0 3705 1059" version="1.1" xmlns="http://www.w3.org/2000/svg" xmlns:xlink="http://www.w3.org/1999/xlink" xml:space="preserve" xmlns:serif="http://www.serif.com/" style="fill-rule:evenodd;clip-rule:evenodd;stroke-linejoin:round;stroke-miterlimit:2;"><g><path d="M398.906,704.167c-107.5,-0 -194.166,-86.667 -194.166,-194.167c-0,-107.5 86.666,-194.167 194.166,-194.167c53.334,0 102.5,21.667 137.5,56.667l68.334,-68.333c-52.5,-53.334 -125,-85.834 -205.834,-85.834c-160.833,0 -291.666,130.834 -291.666,291.667c-0,160.833 130.833,291.667 291.666,291.667c80.834,-0 153.334,-32.5 205.834,-85l-68.334,-69.167c-35,35 -84.166,56.667 -137.5,56.667Zm89.167,-194.167c-0,49.167 -40,90 -90,90c-49.167,0 -90,-40.833 -90,-90c-0,-50 40.833,-90 90,-90c50,-0 90,40 90,90Z" style="fill:#639;fill-rule:nonzero;"/><path d="M899.74,210.833c-384.167,0 -385,598.334 -0,598.334c383.333,-0 382.5,-598.334 -0,-598.334Zm-0,504.167c-252.5,0 -251.667,-409.167 -0,-409.167c252.5,0 252.5,409.167 -0,409.167Z" style="fill:#639;fill-rule:nonzero;"/><path d="M1329.74,218.333l-97.5,0l-0,583.334l97.5,-0c145,-0 340.833,-42.5 340.833,-291.667c-0,-259.167 -199.167,-291.667 -340.833,-291.667Zm242.5,291.667c-0,40.833 -7.5,73.333 -20,99.167l-188.334,-297.5c66.667,-0.834 208.334,20 208.334,198.333Zm-242.5,196.667l-0,-280.834l158.333,252.5c-70,40.834 -158.333,28.334 -158.333,28.334Z" style="fill:#f5bb08;fill-rule:nonzero;"/><path d="M1942.24,810c124.166,0 219.166,-70.833 219.166,-195l0,-396.667l-97.5,0l0,396.667c0,65 -60.833,97.5 -121.666,97.5c-61.667,0 -115.834,-30 -120.834,-97.5l0,-396.667l-97.5,0l0,396.667c0,120 98.334,195 218.334,195Z" style="fill:#f5bb08;fill-rule:nonzero;"/><path d="M2769.74,217.5l-105.834,0l-77.5,186.667l-77.5,-186.667l-105,-0l-243.333,584.167l105,-0l190.833,-457.5l77.5,185.833l-113.333,271.667l105.833,-0l60,-145l60.834,145l105,-0l-112.5,-271.667l77.5,-185.833l190.833,457.5l105,-0l-243.333,-584.167Z" style="fill:#639;fill-rule:nonzero;"/><path d="M3276.41,210.833c-384.166,0 -385,598.334 0,598.334c383.334,-0 382.5,-598.334 0,-598.334Zm0,504.167c-252.5,0 -251.666,-409.167 0,-409.167c252.5,0 252.5,409.167 0,409.167Z" style="fill:#639;fill-rule:nonzero;"/></g></svg>